PathFileType   4   (X/Y/Z)
DataRate	CameraRate	NumFrames	NumMarkers	Units	OrigDataRate	OrigDataStartFrame	OrigNumFrames
120.0	120.0	10	37	mm	120.0	36	142
Frame#	Time	midhip	hip_r	hip_l	knee_r	knee_l	ankle_r	ankle_l	midasis	asis_r	asis_l	psis_r	psis_l	epicondLat_r	epicondLat_l	epicondMed_r	epicondMed_l	malleolusLat_r	malleolusLat_l	malleolusMedv_r	malleolusMedv_l	neck	subclavicle_r	subclavicle_l	sternalnotch	xyphoidprocess	thighwand_r	thighwand_l	upperleg1_r	upperleg1_l	upperleg2_r	upperleg2_l	shankwand_r	shankwand_l	lowerleg1_r	lowerleg1_l	toe_r	toe_l
 	 	X1	Y1	Z1	X2	Y2	Z2	X3	Y3	Z3	X4	Y4	Z4	X5	Y5	Z5	X6	Y6	Z6	X7	Y7	Z7	X8	Y8	Z8	X9	Y9	Z9	X10	Y10	Z10	X11	Y11	Z11	X12	Y12	Z12	X13	Y13	Z13	X14	Y14	Z14	X15	Y15	Z15	X16	Y16	Z16	X17	Y17	Z17	X18	Y18	Z18	X19	Y19	Z19	X20	Y20	Z20	X21	Y21	Z21	X22	Y22	Z22	X23	Y23	Z23	X24	Y24	Z24	X25	Y25	Z25	X26	Y26	Z26	X27	Y27	Z27	X28	Y28	Z28	X29	Y29	Z29	X30	Y30	Z30	X31	Y31	Z31	X32	Y32	Z32	X33	Y33	Z33	X34	Y34	Z34	X35	Y35	Z35	X36	Y36	Z36	X37	Y37	Z37

	36	0.47500	852.794	893.705	-181.429	852.696	869.062	-111.822	847.689	876.393	-261.989	826.468	467.791	-120.960	1012.981	482.013	-268.805	749.623	69.209	-159.786	975.980	90.407	-268.548	934.165	961.960	-185.349	938.129	956.155	-66.442	930.200	967.765	-304.256	746.722	996.881	-146.345	748.863	996.131	-232.038	839.681	465.631	-64.013	1011.887	482.557	-326.792	805.815	470.651	-171.507	1018.775	459.251	-214.777	739.923	67.303	-121.027	951.962	92.656	-299.193	760.593	84.072	-187.160	985.319	103.737	-243.033	759.984	1430.103	-154.620	881.016	1342.985	-116.741	878.506	1348.985	-221.413	863.717	1355.254	-165.259	928.688	1185.483	-188.299	897.996	562.339	9.336	1127.006	611.008	-284.735	906.943	630.494	-53.267	1039.472	634.816	-315.702	898.032	545.792	-80.642	1050.614	547.719	-312.717	789.214	182.969	-23.980	972.023	229.981	-385.227	768.577	160.812	-98.132	965.875	191.534	-313.223	871.241	38.701	-139.935	1083.990	57.376	-305.905
	37	0.48333	858.235	892.915	-181.057	858.135	868.387	-111.962	853.382	875.725	-262.137	828.721	467.390	-120.863	1019.858	481.449	-268.328	749.915	69.212	-159.753	997.973	88.571	-268.233	939.910	961.117	-185.361	943.675	955.305	-66.411	936.145	966.928	-304.311	752.436	996.479	-146.399	754.832	995.586	-232.239	842.032	465.150	-63.941	1018.859	481.938	-326.318	808.102	470.716	-170.949	1024.452	458.004	-214.517	740.160	67.358	-121.005	974.111	89.893	-299.053	760.752	84.064	-187.285	1006.967	102.126	-242.728	765.800	1429.366	-154.382	887.098	1342.386	-116.564	884.345	1348.514	-221.474	869.716	1354.613	-165.254	934.890	1185.057	-188.528	901.323	561.695	9.342	1132.601	610.430	-284.073	910.710	629.985	-53.125	1045.025	633.861	-314.822	901.052	545.213	-80.362	1056.121	546.905	-312.190	789.960	182.878	-23.776	989.481	227.970	-385.069	769.238	160.747	-98.515	984.174	189.543	-312.835	871.224	38.635	-139.904	1107.583	58.459	-304.000
	38	0.49167	863.926	892.308	-180.652	863.629	867.691	-112.045	859.144	874.968	-262.231	831.005	467.027	-120.816	1026.434	480.715	-267.936	750.173	69.248	-159.665	1019.566	87.156	-267.833	945.702	960.233	-185.347	949.255	954.467	-66.349	942.149	966.000	-304.346	758.154	996.027	-146.494	760.829	994.953	-232.490	844.401	464.691	-63.918	1025.511	481.162	-325.927	810.491	471.473	-171.716	1029.225	457.342	-213.812	740.364	67.458	-120.928	995.871	87.562	-298.807	760.874	84.178	-187.398	1028.231	101.103	-242.054	771.603	1428.610	-153.968	893.346	1341.649	-117.019	890.154	1348.001	-221.105	875.758	1353.913	-165.314	941.109	1184.568	-189.207	904.680	561.021	9.367	1138.008	609.542	-283.508	914.653	629.161	-53.043	1050.369	633.138	-314.564	904.152	544.529	-80.753	1061.331	545.641	-311.653	790.690	182.848	-23.537	1006.503	226.228	-384.892	769.162	160.783	-98.810	1002.456	188.127	-312.737	871.201	38.577	-139.866	1130.701	59.766	-302.048
	39	0.50000	870.173	892.148	-180.191	869.197	866.964	-112.074	864.988	874.134	-262.273	833.338	466.713	-120.789	1032.723	479.823	-267.616	750.409	69.311	-159.544	1040.679	86.156	-267.370	951.544	959.323	-185.302	954.879	953.639	-66.253	948.208	965.006	-304.351	763.890	995.505	-146.651	766.860	994.229	-232.780	846.808	464.267	-63.914	1031.854	480.239	-325.608	813.935	471.390	-172.559	1033.843	456.951	-212.908	740.542	67.594	-120.818	1017.153	85.661	-298.471	761.166	84.308	-187.303	1048.987	100.772	-241.392	777.487	1428.092	-153.892	899.495	1340.859	-117.281	896.509	1347.244	-221.200	881.829	1353.153	-165.419	947.361	1183.792	-189.357	908.069	560.315	9.404	1143.239	608.379	-283.042	918.063	628.674	-53.079	1055.606	632.272	-314.809	907.544	543.897	-81.275	1066.593	544.273	-311.179	791.406	182.872	-23.276	1023.000	224.753	-384.686	769.153	160.903	-98.848	1020.406	186.658	-312.673	871.175	38.529	-139.828	1153.235	61.295	-300.072
	40	0.50833	876.592	892.019	-179.742	874.843	866.194	-112.067	870.919	873.232	-262.280	835.734	466.439	-120.742	1038.747	478.789	-267.349	750.644	69.398	-159.418	1061.237	85.553	-266.868	957.435	958.386	-185.228	960.547	952.806	-66.131	954.324	963.967	-304.325	769.653	994.895	-146.878	772.936	993.415	-233.105	849.272	463.880	-63.888	1037.906	479.176	-325.342	817.170	470.621	-172.188	1038.510	455.775	-212.454	740.713	67.755	-120.705	1037.868	84.179	-298.062	761.507	84.541	-187.121	1069.088	100.663	-240.921	783.902	1427.360	-154.239	905.703	1339.814	-117.474	902.634	1346.218	-221.558	887.924	1352.321	-165.526	953.097	1182.630	-189.677	911.491	559.575	9.447	1148.307	606.976	-282.674	921.431	628.345	-53.389	1060.784	630.770	-314.648	910.916	543.457	-81.320	1071.609	542.940	-310.824	792.125	182.938	-23.015	1038.895	223.535	-384.441	769.332	161.083	-98.730	1037.330	184.871	-312.579	871.151	38.497	-139.796	1175.067	63.050	-298.095
	41	0.51667	882.890	891.620	-179.450	880.552	865.369	-112.049	876.930	872.270	-262.277	838.221	466.180	-120.653	1044.537	477.634	-267.116	750.888	69.503	-159.310	1081.154	85.321	-266.348	963.370	957.420	-185.133	966.242	951.946	-65.993	960.498	962.893	-304.273	775.448	994.186	-147.176	779.064	992.518	-233.468	851.814	463.514	-63.817	1043.695	477.988	-325.109	819.376	469.996	-171.285	1043.106	453.954	-212.682	740.891	67.933	-120.611	1057.925	83.092	-297.596	761.748	84.787	-186.968	1088.562	100.861	-240.627	790.576	1426.288	-154.494	911.941	1338.907	-117.859	908.354	1345.287	-221.858	894.049	1351.427	-165.633	958.740	1181.635	-190.231	914.945	558.801	9.489	1153.237	605.372	-282.408	924.938	627.688	-53.463	1065.945	628.855	-314.395	913.896	542.616	-81.142	1076.497	541.592	-310.801	792.868	183.027	-22.778	1054.120	222.553	-384.148	770.059	161.403	-98.293	1053.677	183.531	-312.456	871.132	38.479	-139.769	1196.080	65.039	-296.147
	42	0.52500	888.964	890.846	-179.281	886.299	864.485	-112.048	883.011	871.257	-262.289	840.836	465.908	-120.527	1050.132	476.389	-266.897	751.139	69.624	-159.237	1100.336	85.427	-265.820	969.335	956.419	-185.030	971.943	951.047	-65.849	966.728	961.791	-304.211	781.282	993.382	-147.539	785.247	991.548	-233.870	854.461	463.145	-63.703	1049.259	476.696	-324.890	821.412	469.657	-170.634	1048.002	451.473	-213.632	741.074	68.124	-120.553	1077.220	82.373	-297.082	761.853	84.908	-186.904	1107.450	101.382	-240.273	797.040	1425.238	-154.668	917.835	1338.183	-117.720	914.366	1344.299	-222.059	900.193	1350.500	-165.758	964.586	1180.684	-189.763	918.420	557.996	9.529	1158.062	603.610	-282.247	928.456	626.744	-52.990	1070.482	626.691	-314.485	916.751	541.391	-80.896	1081.303	539.904	-311.271	793.647	183.116	-22.588	1068.612	221.773	-383.798	770.950	161.779	-97.803	1070.083	183.207	-312.184	871.122	38.474	-139.744	1216.162	67.267	-294.269
	43	0.53333	894.884	889.780	-179.121	892.056	863.547	-112.084	889.150	870.203	-262.338	843.618	465.595	-120.388	1055.577	475.085	-266.679	751.384	69.758	-159.203	1118.676	85.828	-265.284	975.320	955.385	-184.928	977.626	950.103	-65.703	973.014	960.666	-304.153	787.160	992.493	-147.962	791.480	990.524	-234.312	857.236	462.752	-63.566	1054.642	475.328	-324.671	824.054	469.963	-170.851	1053.279	448.658	-215.117	741.250	68.327	-120.534	1095.642	81.982	-296.519	761.958	84.984	-186.951	1125.315	101.937	-239.686	803.178	1424.490	-154.823	924.077	1337.215	-117.527	920.499	1343.169	-221.835	906.382	1349.552	-165.910	970.555	1179.545	-189.358	921.907	557.167	9.571	1162.822	601.743	-282.182	932.311	625.466	-52.442	1074.580	624.924	-314.538	919.989	540.610	-80.725	1086.070	538.028	-311.994	794.462	183.184	-22.463	1082.315	221.150	-383.386	771.576	162.105	-97.886	1085.879	183.162	-311.820	871.126	38.482	-139.714	1235.222	69.715	-292.504
	44	0.54167	901.043	888.859	-178.979	897.805	862.565	-112.164	895.340	869.120	-262.430	846.595	465.218	-120.262	1060.923	473.748	-266.453	751.610	69.899	-159.203	1136.068	86.467	-264.725	981.318	954.320	-184.828	983.275	949.116	-65.550	979.361	959.523	-304.105	793.081	991.538	-148.439	797.756	989.465	-234.792	860.155	462.313	-63.430	1059.903	473.911	-324.444	827.474	470.270	-171.701	1057.373	446.686	-215.676	741.404	68.544	-120.551	1113.083	81.868	-295.894	762.124	85.048	-187.035	1142.222	102.743	-239.167	808.562	1423.777	-154.813	930.496	1336.198	-117.704	926.827	1342.179	-221.786	912.654	1348.574	-166.105	977.285	1178.663	-189.534	925.405	556.323	9.620	1167.557	599.830	-282.194	936.244	624.321	-52.290	1079.600	623.395	-314.230	923.599	540.154	-80.886	1090.569	536.274	-312.148	795.309	183.217	-22.408	1095.194	220.640	-382.911	772.345	162.144	-98.121	1100.237	182.969	-311.162	871.148	38.500	-139.675	1253.183	72.332	-290.894
	45	0.55000	907.273	887.936	-178.930	903.533	861.554	-112.283	901.574	868.017	-262.561	849.774	464.760	-120.181	1066.221	472.397	-266.210	751.803	70.051	-159.227	1152.399	87.263	-264.113	987.328	953.228	-184.723	988.884	948.095	-65.384	985.773	958.361	-304.062	799.046	990.544	-148.966	804.066	988.390	-235.311	863.222	461.807	-63.324	1065.098	472.465	-324.199	831.178	469.961	-172.012	1060.416	445.580	-214.798	741.526	68.780	-120.591	1129.438	81.956	-295.188	762.265	85.115	-187.139	1158.516	103.718	-238.616	814.615	1422.594	-155.031	936.392	1335.289	-117.854	933.354	1341.407	-222.362	919.026	1347.558	-166.343	983.925	1177.938	-189.775	928.926	555.475	9.680	1172.312	597.932	-282.257	940.358	623.602	-52.494	1084.848	621.472	-314.213	927.374	539.512	-80.981	1094.628	534.305	-311.749	796.178	183.210	-22.418	1107.239	220.198	-382.369	773.294	161.882	-97.849	1113.220	182.864	-310.496	871.189	38.531	-139.625	1269.984	75.027	-289.473
